<svg xmlns="http://www.w3.org/2000/svg" fill="none" viewBox="21 18.8 188.18 174.69">
<ellipse cx="127.653" cy="106.144" rx="73.8717" ry="73.8341" stroke="#414148" stroke-width="15.3149"/>
<g filter="url(#filter0_d_36_20623)">
<path d="M127.653 32.3101C86.8547 32.3101 53.7812 65.3667 53.7812 106.144C53.7812 146.922 86.8547 179.978 127.653 179.978C143.602 179.978 158.371 174.926 170.445 166.336" stroke="url(#paint0_linear_36_20623)" stroke-width="27.0262"/>
</g>
<path d="M169.644 76.4302L25.5044 76.4302C23.0167 76.4302 21 78.4468 21 80.9345L21 127.752C21 130.239 23.0167 132.256 25.5044 132.256H87.2143L93.07 138.109L98.9257 132.256H169.644C172.132 132.256 174.149 130.239 174.149 127.752V80.9345C174.149 78.4469 172.132 76.4302 169.644 76.4302Z" fill="#293134"/>
<path d="M32.5949 89.4877H37.8389V90.4837L34.7789 97.8877H33.6149L36.6509 90.5437H32.5949V89.4877ZM38.2222 97.8877V96.9757L41.1862 93.9517C41.9782 93.1597 42.3742 92.4797 42.3742 91.9117C42.3742 91.4397 42.2302 91.0717 41.9422 90.8077C41.6542 90.5437 41.3022 90.4117 40.8862 90.4117C40.0942 90.4117 39.5182 90.7877 39.1582 91.5397L38.2222 90.9877C38.4862 90.4437 38.8502 90.0317 39.3142 89.7517C39.7862 89.4717 40.3062 89.3317 40.8742 89.3317C41.5782 89.3317 42.1902 89.5637 42.7102 90.0277C43.2302 90.4917 43.4902 91.1157 43.4902 91.8997C43.4902 92.7477 42.9902 93.6717 41.9902 94.6717L39.8422 96.8077H43.6462V97.8877H38.2222ZM45.4503 98.0197C45.2343 98.0197 45.0503 97.9437 44.8983 97.7917C44.7463 97.6397 44.6703 97.4557 44.6703 97.2397C44.6703 97.0237 44.7463 96.8397 44.8983 96.6877C45.0503 96.5357 45.2343 96.4597 45.4503 96.4597C45.6743 96.4597 45.8583 96.5357 46.0023 96.6877C46.1543 96.8397 46.2303 97.0237 46.2303 97.2397C46.2303 97.4557 46.1543 97.6397 46.0023 97.7917C45.8583 97.9437 45.6743 98.0197 45.4503 98.0197ZM50.5883 92.9317C51.2283 93.0517 51.7523 93.3277 52.1603 93.7597C52.5683 94.1917 52.7723 94.7397 52.7723 95.4037C52.7723 96.2197 52.4923 96.8637 51.9323 97.3357C51.3723 97.8077 50.6923 98.0437 49.8923 98.0437C49.2523 98.0437 48.6843 97.8997 48.1883 97.6117C47.6923 97.3157 47.3403 96.8917 47.1323 96.3397L48.0683 95.7877C48.3163 96.5637 48.9243 96.9517 49.8923 96.9517C50.4123 96.9517 50.8363 96.8157 51.1643 96.5437C51.4923 96.2717 51.6563 95.8917 51.6563 95.4037C51.6563 94.9157 51.4923 94.5357 51.1643 94.2637C50.8363 93.9837 50.4123 93.8437 49.8923 93.8437H49.6043L49.1603 93.1597L51.1043 90.5317H47.3723V89.4877H52.4123V90.4717L50.5883 92.9317ZM55.2908 93.0517C54.7468 93.0517 54.2948 92.8717 53.9348 92.5117C53.5748 92.1517 53.3948 91.7117 53.3948 91.1917C53.3948 90.6797 53.5748 90.2437 53.9348 89.8837C54.3028 89.5157 54.7548 89.3317 55.2908 89.3317C55.8348 89.3317 56.2868 89.5117 56.6468 89.8717C57.0068 90.2317 57.1868 90.6717 57.1868 91.1917C57.1868 91.7117 57.0068 92.1517 56.6468 92.5117C56.2948 92.8717 55.8428 93.0517 55.2908 93.0517ZM54.5948 91.8997C54.7788 92.0837 55.0108 92.1757 55.2908 92.1757C55.5708 92.1757 55.7988 92.0797 55.9748 91.8877C56.1588 91.6957 56.2508 91.4637 56.2508 91.1917C56.2508 90.9197 56.1588 90.6917 55.9748 90.5077C55.7988 90.3157 55.5708 90.2197 55.2908 90.2197C55.0108 90.2197 54.7788 90.3157 54.5948 90.5077C54.4188 90.6917 54.3308 90.9197 54.3308 91.1917C54.3308 91.4717 54.4188 91.7077 54.5948 91.8997ZM53.9588 96.6997L59.5388 90.4597L60.1268 90.7837L54.5348 97.0357L53.9588 96.6997ZM60.2708 97.4917C59.9108 97.8517 59.4588 98.0317 58.9148 98.0317C58.3708 98.0317 57.9188 97.8517 57.5588 97.4917C57.1988 97.1317 57.0188 96.6917 57.0188 96.1717C57.0188 95.6517 57.1988 95.2117 57.5588 94.8517C57.9188 94.4917 58.3708 94.3117 58.9148 94.3117C59.4588 94.3117 59.9108 94.4917 60.2708 94.8517C60.6308 95.2117 60.8108 95.6517 60.8108 96.1717C60.8108 96.6917 60.6308 97.1317 60.2708 97.4917ZM58.2188 96.8677C58.4028 97.0517 58.6348 97.1437 58.9148 97.1437C59.1948 97.1437 59.4228 97.0517 59.5988 96.8677C59.7828 96.6757 59.8748 96.4437 59.8748 96.1717C59.8748 95.8997 59.7828 95.6717 59.5988 95.4877C59.4228 95.2957 59.1948 95.1997 58.9148 95.1997C58.6348 95.1997 58.4028 95.2957 58.2188 95.4877C58.0428 95.6717 57.9548 95.8997 57.9548 96.1717C57.9548 96.4437 58.0428 96.6757 58.2188 96.8677ZM70.0813 97.1317C69.4653 97.7397 68.7173 98.0437 67.8373 98.0437C66.9573 98.0437 66.2093 97.7397 65.5933 97.1317C64.9853 96.5237 64.6813 95.7757 64.6813 94.8877C64.6813 93.9997 64.9853 93.2517 65.5933 92.6437C66.2093 92.0357 66.9573 91.7317 67.8373 91.7317C68.7173 91.7317 69.4653 92.0357 70.0813 92.6437C70.6973 93.2517 71.0053 93.9997 71.0053 94.8877C71.0053 95.7757 70.6973 96.5237 70.0813 97.1317ZM67.8373 97.0237C68.4373 97.0237 68.9413 96.8197 69.3493 96.4117C69.7573 96.0037 69.9613 95.4957 69.9613 94.8877C69.9613 94.2797 69.7573 93.7717 69.3493 93.3637C68.9413 92.9557 68.4373 92.7517 67.8373 92.7517C67.2453 92.7517 66.7453 92.9557 66.3373 93.3637C65.9293 93.7717 65.7253 94.2797 65.7253 94.8877C65.7253 95.4957 65.9293 96.0037 66.3373 96.4117C66.7453 96.8197 67.2453 97.0237 67.8373 97.0237ZM74.9774 90.3397C73.9214 90.2517 73.3934 90.7077 73.3934 91.7077V91.8877H74.9774V92.8957H73.3934V97.8877H72.3494V92.8957H71.3894V91.8877H72.3494V91.7077C72.3494 90.8997 72.5734 90.2877 73.0214 89.8717C73.4774 89.4557 74.1294 89.2757 74.9774 89.3317V90.3397ZM81.7963 92.8957H80.2003V96.1477C80.2003 96.4437 80.2563 96.6557 80.3683 96.7837C80.4883 96.9037 80.6683 96.9677 80.9083 96.9757C81.1483 96.9757 81.4443 96.9677 81.7963 96.9517V97.8877C80.8843 98.0077 80.2163 97.9357 79.7923 97.6717C79.3683 97.3997 79.1563 96.8917 79.1563 96.1477V92.8957H77.9683V91.8877H79.1563V90.5197L80.2003 90.2077V91.8877H81.7963V92.8957ZM85.9003 91.7317C86.6043 91.7317 87.1683 91.9557 87.5923 92.4037C88.0163 92.8437 88.2283 93.4437 88.2283 94.2037V97.8877H87.1843V94.2637C87.1843 93.7757 87.0523 93.3997 86.7883 93.1357C86.5243 92.8637 86.1603 92.7277 85.6963 92.7277C85.1763 92.7277 84.7563 92.8917 84.4363 93.2197C84.1163 93.5397 83.9563 94.0357 83.9563 94.7077V97.8877H82.9123V89.4877H83.9563V92.7517C84.3803 92.0717 85.0283 91.7317 85.9003 91.7317ZM90.2978 95.3677C90.4018 95.9037 90.6458 96.3197 91.0298 96.6157C91.4218 96.9117 91.9018 97.0597 92.4698 97.0597C93.2618 97.0597 93.8378 96.7677 94.1978 96.1837L95.0858 96.6877C94.5018 97.5917 93.6218 98.0437 92.4458 98.0437C91.4938 98.0437 90.7178 97.7477 90.1178 97.1557C89.5258 96.5557 89.2298 95.7997 89.2298 94.8877C89.2298 93.9837 89.5218 93.2317 90.1058 92.6317C90.6898 92.0317 91.4458 91.7317 92.3738 91.7317C93.2538 91.7317 93.9698 92.0437 94.5218 92.6677C95.0818 93.2837 95.3618 94.0277 95.3618 94.8997C95.3618 95.0517 95.3498 95.2077 95.3258 95.3677H90.2978ZM92.3738 92.7157C91.8138 92.7157 91.3498 92.8757 90.9818 93.1957C90.6138 93.5077 90.3858 93.9277 90.2978 94.4557H94.3058C94.2178 93.8877 93.9938 93.4557 93.6338 93.1597C93.2738 92.8637 92.8538 92.7157 92.3738 92.7157ZM105.802 91.7317C106.474 91.7317 107.018 91.9517 107.434 92.3917C107.85 92.8237 108.058 93.4117 108.058 94.1557V97.8877H107.014V94.1917C107.014 93.7277 106.894 93.3677 106.654 93.1117C106.414 92.8557 106.094 92.7277 105.694 92.7277C105.246 92.7277 104.886 92.8797 104.614 93.1837C104.35 93.4797 104.218 93.9357 104.218 94.5517V97.8877H103.174V94.1917C103.174 93.7277 103.058 93.3677 102.826 93.1117C102.602 92.8557 102.294 92.7277 101.902 92.7277C101.462 92.7277 101.094 92.8797 100.798 93.1837C100.51 93.4877 100.366 93.9437 100.366 94.5517V97.8877H99.3218V91.8877H100.366V92.6917C100.774 92.0517 101.37 91.7317 102.154 91.7317C102.962 91.7317 103.55 92.0717 103.918 92.7517C104.334 92.0717 104.962 91.7317 105.802 91.7317ZM110.117 95.3677C110.221 95.9037 110.465 96.3197 110.849 96.6157C111.241 96.9117 111.721 97.0597 112.289 97.0597C113.081 97.0597 113.657 96.7677 114.017 96.1837L114.905 96.6877C114.321 97.5917 113.441 98.0437 112.265 98.0437C111.313 98.0437 110.537 97.7477 109.937 97.1557C109.345 96.5557 109.049 95.7997 109.049 94.8877C109.049 93.9837 109.341 93.2317 109.925 92.6317C110.509 92.0317 111.265 91.7317 112.193 91.7317C113.073 91.7317 113.789 92.0437 114.341 92.6677C114.901 93.2837 115.181 94.0277 115.181 94.8997C115.181 95.0517 115.169 95.2077 115.145 95.3677H110.117ZM112.193 92.7157C111.633 92.7157 111.169 92.8757 110.801 93.1957C110.433 93.5077 110.205 93.9277 110.117 94.4557H114.125C114.037 93.8877 113.813 93.4557 113.453 93.1597C113.093 92.8637 112.673 92.7157 112.193 92.7157ZM121.218 89.4877H122.262V97.8877H121.218V96.8557C120.698 97.6477 119.942 98.0437 118.95 98.0437C118.11 98.0437 117.394 97.7397 116.802 97.1317C116.21 96.5157 115.914 95.7677 115.914 94.8877C115.914 94.0077 116.21 93.2637 116.802 92.6557C117.394 92.0397 118.11 91.7317 118.95 91.7317C119.942 91.7317 120.698 92.1277 121.218 92.9197V89.4877ZM119.082 97.0357C119.69 97.0357 120.198 96.8317 120.606 96.4237C121.014 96.0077 121.218 95.4957 121.218 94.8877C121.218 94.2797 121.014 93.7717 120.606 93.3637C120.198 92.9477 119.69 92.7397 119.082 92.7397C118.482 92.7397 117.978 92.9477 117.57 93.3637C117.162 93.7717 116.958 94.2797 116.958 94.8877C116.958 95.4957 117.162 96.0077 117.57 96.4237C117.978 96.8317 118.482 97.0357 119.082 97.0357ZM124.252 90.7957C124.052 90.7957 123.884 90.7277 123.748 90.5917C123.612 90.4557 123.544 90.2917 123.544 90.0997C123.544 89.9077 123.612 89.7437 123.748 89.6077C123.884 89.4637 124.052 89.3917 124.252 89.3917C124.444 89.3917 124.608 89.4637 124.744 89.6077C124.88 89.7437 124.948 89.9077 124.948 90.0997C124.948 90.2917 124.88 90.4557 124.744 90.5917C124.608 90.7277 124.444 90.7957 124.252 90.7957ZM123.724 97.8877V91.8877H124.768V97.8877H123.724ZM131.208 91.8877H132.252V97.8877H131.208V96.8557C130.688 97.6477 129.932 98.0437 128.94 98.0437C128.1 98.0437 127.384 97.7397 126.792 97.1317C126.2 96.5157 125.904 95.7677 125.904 94.8877C125.904 94.0077 126.2 93.2637 126.792 92.6557C127.384 92.0397 128.1 91.7317 128.94 91.7317C129.932 91.7317 130.688 92.1277 131.208 92.9197V91.8877ZM129.072 97.0357C129.68 97.0357 130.188 96.8317 130.596 96.4237C131.004 96.0077 131.208 95.4957 131.208 94.8877C131.208 94.2797 131.004 93.7717 130.596 93.3637C130.188 92.9477 129.68 92.7397 129.072 92.7397C128.472 92.7397 127.968 92.9477 127.56 93.3637C127.152 93.7717 126.948 94.2797 126.948 94.8877C126.948 95.4957 127.152 96.0077 127.56 96.4237C127.968 96.8317 128.472 97.0357 129.072 97.0357ZM139.678 90.3397C138.622 90.2517 138.094 90.7077 138.094 91.7077V91.8877H139.678V92.8957H138.094V97.8877H137.05V92.8957H136.09V91.8877H137.05V91.7077C137.05 90.8997 137.274 90.2877 137.722 89.8717C138.178 89.4557 138.83 89.2757 139.678 89.3317V90.3397ZM145.089 97.1317C144.473 97.7397 143.725 98.0437 142.845 98.0437C141.965 98.0437 141.217 97.7397 140.601 97.1317C139.993 96.5237 139.689 95.7757 139.689 94.8877C139.689 93.9997 139.993 93.2517 140.601 92.6437C141.217 92.0357 141.965 91.7317 142.845 91.7317C143.725 91.7317 144.473 92.0357 145.089 92.6437C145.705 93.2517 146.013 93.9997 146.013 94.8877C146.013 95.7757 145.705 96.5237 145.089 97.1317ZM142.845 97.0237C143.445 97.0237 143.949 96.8197 144.357 96.4117C144.765 96.0037 144.969 95.4957 144.969 94.8877C144.969 94.2797 144.765 93.7717 144.357 93.3637C143.949 92.9557 143.445 92.7517 142.845 92.7517C142.253 92.7517 141.753 92.9557 141.345 93.3637C140.937 93.7717 140.733 94.2797 140.733 94.8877C140.733 95.4957 140.937 96.0037 141.345 96.4117C141.753 96.8197 142.253 97.0237 142.845 97.0237ZM148.168 92.8957C148.512 92.1517 149.136 91.7797 150.04 91.7797V92.8717C149.528 92.8477 149.088 92.9837 148.72 93.2797C148.352 93.5757 148.168 94.0517 148.168 94.7077V97.8877H147.124V91.8877H148.168V92.8957ZM39.1589 109.028H37.7669L37.5509 110.348H38.9549L38.8109 111.212H37.4069L37.0589 113.288H36.1469L36.4949 111.212H35.0309L34.6829 113.288H33.7589L34.1069 111.212H32.7149L32.8589 110.348H34.2509L34.4669 109.028H33.0629L33.2069 108.152H34.6109L34.9589 106.088H35.8829L35.5349 108.152H36.9989L37.3469 106.088H38.2589L37.9109 108.152H39.3029L39.1589 109.028ZM36.6389 110.348L36.8549 109.028H35.3909L35.1749 110.348H36.6389ZM41.2165 109.508C41.2165 109.74 41.3325 109.928 41.5645 110.072C41.7965 110.208 42.0765 110.32 42.4045 110.408C42.7325 110.488 43.0605 110.584 43.3885 110.696C43.7165 110.8 43.9965 110.984 44.2285 111.248C44.4605 111.504 44.5765 111.836 44.5765 112.244C44.5765 112.788 44.3645 113.224 43.9405 113.552C43.5245 113.88 42.9885 114.044 42.3325 114.044C41.7485 114.044 41.2485 113.916 40.8325 113.66C40.4165 113.404 40.1205 113.064 39.9445 112.64L40.8445 112.124C40.9405 112.412 41.1205 112.64 41.3845 112.808C41.6485 112.976 41.9645 113.06 42.3325 113.06C42.6765 113.06 42.9605 112.996 43.1845 112.868C43.4085 112.732 43.5205 112.524 43.5205 112.244C43.5205 112.012 43.4045 111.828 43.1725 111.692C42.9405 111.548 42.6605 111.436 42.3325 111.356C42.0045 111.268 41.6765 111.168 41.3485 111.056C41.0205 110.944 40.7405 110.76 40.5085 110.504C40.2765 110.248 40.1605 109.92 40.1605 109.52C40.1605 109 40.3605 108.572 40.7605 108.236C41.1685 107.9 41.6765 107.732 42.2845 107.732C42.7725 107.732 43.2045 107.844 43.5805 108.068C43.9645 108.284 44.2525 108.588 44.4445 108.98L43.5685 109.472C43.3525 108.96 42.9245 108.704 42.2845 108.704C41.9885 108.704 41.7365 108.776 41.5285 108.92C41.3205 109.056 41.2165 109.252 41.2165 109.508ZM49.774 107.888H50.818V113.888H49.774V113.024C49.35 113.704 48.702 114.044 47.83 114.044C47.126 114.044 46.562 113.824 46.138 113.384C45.714 112.936 45.502 112.332 45.502 111.572V107.888H46.546V111.512C46.546 112 46.678 112.38 46.942 112.652C47.206 112.916 47.57 113.048 48.034 113.048C48.554 113.048 48.974 112.888 49.294 112.568C49.614 112.24 49.774 111.74 49.774 111.068V107.888ZM55.2755 107.732C55.9795 107.732 56.5435 107.956 56.9675 108.404C57.3915 108.844 57.6035 109.444 57.6035 110.204V113.888H56.5595V110.264C56.5595 109.776 56.4275 109.4 56.1635 109.136C55.8995 108.864 55.5355 108.728 55.0715 108.728C54.5515 108.728 54.1315 108.892 53.8115 109.22C53.4915 109.54 53.3315 110.036 53.3315 110.708V113.888H52.2875V107.888H53.3315V108.752C53.7555 108.072 54.4035 107.732 55.2755 107.732ZM59.9849 108.896C60.3289 108.152 60.9529 107.78 61.8569 107.78V108.872C61.3449 108.848 60.9049 108.984 60.5369 109.28C60.1689 109.576 59.9849 110.052 59.9849 110.708V113.888H58.9409V107.888H59.9849V108.896ZM63.2864 106.796C63.0864 106.796 62.9184 106.728 62.7824 106.592C62.6464 106.456 62.5784 106.292 62.5784 106.1C62.5784 105.908 62.6464 105.744 62.7824 105.608C62.9184 105.464 63.0864 105.392 63.2864 105.392C63.4784 105.392 63.6424 105.464 63.7784 105.608C63.9144 105.744 63.9824 105.908 63.9824 106.1C63.9824 106.292 63.9144 106.456 63.7784 106.592C63.6424 106.728 63.4784 106.796 63.2864 106.796ZM62.7584 113.888V107.888H63.8024V113.888H62.7584ZM66.1634 109.508C66.1634 109.74 66.2794 109.928 66.5114 110.072C66.7434 110.208 67.0234 110.32 67.3514 110.408C67.6794 110.488 68.0074 110.584 68.3354 110.696C68.6634 110.8 68.9434 110.984 69.1754 111.248C69.4074 111.504 69.5234 111.836 69.5234 112.244C69.5234 112.788 69.3114 113.224 68.8874 113.552C68.4714 113.88 67.9354 114.044 67.2794 114.044C66.6954 114.044 66.1954 113.916 65.7794 113.66C65.3634 113.404 65.0674 113.064 64.8914 112.64L65.7914 112.124C65.8874 112.412 66.0674 112.64 66.3314 112.808C66.5954 112.976 66.9114 113.06 67.2794 113.06C67.6234 113.06 67.9074 112.996 68.1314 112.868C68.3554 112.732 68.4674 112.524 68.4674 112.244C68.4674 112.012 68.3514 111.828 68.1194 111.692C67.8874 111.548 67.6074 111.436 67.2794 111.356C66.9514 111.268 66.6234 111.168 66.2954 111.056C65.9674 110.944 65.6874 110.76 65.4554 110.504C65.2234 110.248 65.1074 109.92 65.1074 109.52C65.1074 109 65.3074 108.572 65.7074 108.236C66.1154 107.9 66.6234 107.732 67.2314 107.732C67.7194 107.732 68.1514 107.844 68.5274 108.068C68.9114 108.284 69.1994 108.588 69.3914 108.98L68.5154 109.472C68.2994 108.96 67.8714 108.704 67.2314 108.704C66.9354 108.704 66.6834 108.776 66.4754 108.92C66.2674 109.056 66.1634 109.252 66.1634 109.508ZM71.2074 111.368C71.3114 111.904 71.5554 112.32 71.9394 112.616C72.3314 112.912 72.8114 113.06 73.3794 113.06C74.1714 113.06 74.7474 112.768 75.1074 112.184L75.9954 112.688C75.4114 113.592 74.5314 114.044 73.3554 114.044C72.4034 114.044 71.6274 113.748 71.0274 113.156C70.4354 112.556 70.1394 111.8 70.1394 110.888C70.1394 109.984 70.4314 109.232 71.0154 108.632C71.5994 108.032 72.3554 107.732 73.2834 107.732C74.1634 107.732 74.8794 108.044 75.4314 108.668C75.9914 109.284 76.2714 110.028 76.2714 110.9C76.2714 111.052 76.2594 111.208 76.2354 111.368H71.2074ZM73.2834 108.716C72.7234 108.716 72.2594 108.876 71.8914 109.196C71.5234 109.508 71.2954 109.928 71.2074 110.456H75.2154C75.1274 109.888 74.9034 109.456 74.5434 109.16C74.1834 108.864 73.7634 108.716 73.2834 108.716ZM85.1995 107.888H86.2435V113.888H85.1995V112.856C84.6795 113.648 83.9235 114.044 82.9315 114.044C82.0915 114.044 81.3755 113.74 80.7835 113.132C80.1915 112.516 79.8955 111.768 79.8955 110.888C79.8955 110.008 80.1915 109.264 80.7835 108.656C81.3755 108.04 82.0915 107.732 82.9315 107.732C83.9235 107.732 84.6795 108.128 85.1995 108.92V107.888ZM83.0635 113.036C83.6715 113.036 84.1795 112.832 84.5875 112.424C84.9955 112.008 85.1995 111.496 85.1995 110.888C85.1995 110.28 84.9955 109.772 84.5875 109.364C84.1795 108.948 83.6715 108.74 83.0635 108.74C82.4635 108.74 81.9595 108.948 81.5515 109.364C81.1435 109.772 80.9395 110.28 80.9395 110.888C80.9395 111.496 81.1435 112.008 81.5515 112.424C81.9595 112.832 82.4635 113.036 83.0635 113.036ZM88.7493 108.896C89.0933 108.152 89.7173 107.78 90.6213 107.78V108.872C90.1093 108.848 89.6693 108.984 89.3013 109.28C88.9333 109.576 88.7493 110.052 88.7493 110.708V113.888H87.7053V107.888H88.7493V108.896ZM91.9267 111.368C92.0307 111.904 92.2747 112.32 92.6587 112.616C93.0507 112.912 93.5307 113.06 94.0987 113.06C94.8907 113.06 95.4667 112.768 95.8267 112.184L96.7147 112.688C96.1307 113.592 95.2507 114.044 94.0747 114.044C93.1227 114.044 92.3467 113.748 91.7467 113.156C91.1547 112.556 90.8587 111.8 90.8587 110.888C90.8587 109.984 91.1507 109.232 91.7347 108.632C92.3187 108.032 93.0747 107.732 94.0027 107.732C94.8827 107.732 95.5987 108.044 96.1507 108.668C96.7107 109.284 96.9907 110.028 96.9907 110.9C96.9907 111.052 96.9787 111.208 96.9547 111.368H91.9267ZM94.0027 108.716C93.4427 108.716 92.9787 108.876 92.6107 109.196C92.2427 109.508 92.0147 109.928 91.9267 110.456H95.9347C95.8467 109.888 95.6227 109.456 95.2627 109.16C94.9027 108.864 94.4827 108.716 94.0027 108.716ZM104.263 107.732C105.103 107.732 105.819 108.04 106.411 108.656C107.003 109.264 107.299 110.008 107.299 110.888C107.299 111.768 107.003 112.516 106.411 113.132C105.819 113.74 105.103 114.044 104.263 114.044C103.271 114.044 102.515 113.648 101.995 112.856V116.288H100.951V107.888H101.995V108.92C102.515 108.128 103.271 107.732 104.263 107.732ZM104.131 113.036C104.731 113.036 105.235 112.832 105.643 112.424C106.051 112.008 106.255 111.496 106.255 110.888C106.255 110.28 106.051 109.772 105.643 109.364C105.235 108.948 104.731 108.74 104.131 108.74C103.523 108.74 103.015 108.948 102.607 109.364C102.199 109.772 101.995 110.28 101.995 110.888C101.995 111.496 102.199 112.008 102.607 112.424C103.015 112.832 103.523 113.036 104.131 113.036ZM111.413 107.732C112.117 107.732 112.681 107.956 113.105 108.404C113.528 108.844 113.74 109.444 113.74 110.204V113.888H112.696V110.264C112.696 109.776 112.564 109.4 112.301 109.136C112.036 108.864 111.672 108.728 111.208 108.728C110.688 108.728 110.268 108.892 109.948 109.22C109.628 109.54 109.468 110.036 109.468 110.708V113.888H108.424V105.488H109.468V108.752C109.892 108.072 110.54 107.732 111.413 107.732ZM120.142 113.132C119.526 113.74 118.778 114.044 117.898 114.044C117.018 114.044 116.27 113.74 115.654 113.132C115.046 112.524 114.742 111.776 114.742 110.888C114.742 110 115.046 109.252 115.654 108.644C116.27 108.036 117.018 107.732 117.898 107.732C118.778 107.732 119.526 108.036 120.142 108.644C120.758 109.252 121.066 110 121.066 110.888C121.066 111.776 120.758 112.524 120.142 113.132ZM117.898 113.024C118.498 113.024 119.002 112.82 119.41 112.412C119.818 112.004 120.022 111.496 120.022 110.888C120.022 110.28 119.818 109.772 119.41 109.364C119.002 108.956 118.498 108.752 117.898 108.752C117.306 108.752 116.806 108.956 116.398 109.364C115.99 109.772 115.786 110.28 115.786 110.888C115.786 111.496 115.99 112.004 116.398 112.412C116.806 112.82 117.306 113.024 117.898 113.024ZM125.312 108.896H123.716V112.148C123.716 112.444 123.772 112.656 123.884 112.784C124.004 112.904 124.184 112.968 124.424 112.976C124.664 112.976 124.96 112.968 125.312 112.952V113.888C124.4 114.008 123.732 113.936 123.308 113.672C122.884 113.4 122.672 112.892 122.672 112.148V108.896H121.484V107.888H122.672V106.52L123.716 106.208V107.888H125.312V108.896ZM131.187 113.132C130.571 113.74 129.823 114.044 128.943 114.044C128.063 114.044 127.315 113.74 126.699 113.132C126.091 112.524 125.787 111.776 125.787 110.888C125.787 110 126.091 109.252 126.699 108.644C127.315 108.036 128.063 107.732 128.943 107.732C129.823 107.732 130.571 108.036 131.187 108.644C131.803 109.252 132.111 110 132.111 110.888C132.111 111.776 131.803 112.524 131.187 113.132ZM128.943 113.024C129.543 113.024 130.047 112.82 130.455 112.412C130.863 112.004 131.067 111.496 131.067 110.888C131.067 110.28 130.863 109.772 130.455 109.364C130.047 108.956 129.543 108.752 128.943 108.752C128.351 108.752 127.851 108.956 127.443 109.364C127.035 109.772 126.831 110.28 126.831 110.888C126.831 111.496 127.035 112.004 127.443 112.412C127.851 112.82 128.351 113.024 128.943 113.024ZM133.993 109.508C133.993 109.74 134.109 109.928 134.341 110.072C134.573 110.208 134.853 110.32 135.181 110.408C135.509 110.488 135.837 110.584 136.165 110.696C136.493 110.8 136.773 110.984 137.005 111.248C137.237 111.504 137.353 111.836 137.353 112.244C137.353 112.788 137.141 113.224 136.717 113.552C136.301 113.88 135.765 114.044 135.109 114.044C134.525 114.044 134.025 113.916 133.609 113.66C133.193 113.404 132.897 113.064 132.721 112.64L133.621 112.124C133.717 112.412 133.897 112.64 134.161 112.808C134.425 112.976 134.741 113.06 135.109 113.06C135.453 113.06 135.737 112.996 135.961 112.868C136.185 112.732 136.297 112.524 136.297 112.244C136.297 112.012 136.181 111.828 135.949 111.692C135.717 111.548 135.437 111.436 135.109 111.356C134.781 111.268 134.453 111.168 134.125 111.056C133.797 110.944 133.517 110.76 133.285 110.504C133.053 110.248 132.937 109.92 132.937 109.52C132.937 109 133.137 108.572 133.537 108.236C133.945 107.9 134.453 107.732 135.061 107.732C135.549 107.732 135.981 107.844 136.357 108.068C136.741 108.284 137.029 108.588 137.221 108.98L136.345 109.472C136.129 108.96 135.701 108.704 135.061 108.704C134.765 108.704 134.513 108.776 134.305 108.92C134.097 109.056 133.993 109.252 133.993 109.508ZM139 114.02C138.784 114.02 138.6 113.944 138.448 113.792C138.296 113.64 138.22 113.456 138.22 113.24C138.22 113.024 138.296 112.84 138.448 112.688C138.6 112.536 138.784 112.46 139 112.46C139.224 112.46 139.408 112.536 139.552 112.688C139.704 112.84 139.78 113.024 139.78 113.24C139.78 113.456 139.704 113.64 139.552 113.792C139.408 113.944 139.224 114.02 139 114.02Z" fill="#3E4581"/>
<defs>
<filter id="filter0_d_36_20623" x="0.268555" y="0.417866" width="218.01" height="254.694" filterUnits="userSpaceOnUse" color-interpolation-filters="sRGB">
<feFlood flood-opacity="0" result="BackgroundImageFix"/>
<feColorMatrix in="SourceAlpha" type="matrix" values="0 0 0 0 0 0 0 0 0 0 0 0 0 0 0 0 0 0 127 0" result="hardAlpha"/>
<feOffset dy="21.621"/>
<feGaussianBlur stdDeviation="20"/>
<feColorMatrix type="matrix" values="0 0 0 0 0 0 0 0 0 0 0 0 0 0 0 0 0 0 0.1 0"/>
<feBlend mode="normal" in2="BackgroundImageFix" result="effect1_dropShadow_36_20623"/>
<feBlend mode="normal" in="SourceGraphic" in2="effect1_dropShadow_36_20623" result="shape"/>
</filter>
<linearGradient id="paint0_linear_36_20623" x1="53.7812" y1="32.3101" x2="196.842" y2="65.2168" gradientUnits="userSpaceOnUse">
<stop stop-color="#AE68FA"/>
<stop offset="1" stop-color="#F1966E"/>
</linearGradient>
</defs>
</svg>