<svg xmlns="http://www.w3.org/2000/svg" fill="none" viewBox="0 0 214.29 105.86">
<path d="M143.75 11.5711L132.235 39.3672C131.454 41.2521 129.366 42.2347 127.39 41.7281C78.9319 29.3055 44.8502 56.4378 36.4333 102.284C36.0766 104.227 34.4034 105.679 32.428 105.679H3.94657C1.9067 105.679 0.181212 104.157 0.0794432 102.119C-2.38928 52.6974 52.8547 -22.2746 141.325 6.31051C143.505 7.01472 144.627 9.45504 143.75 11.5711Z" fill="url(#paint0_linear_36_20185)"/>
<path d="M149.03 14.5825L137.694 39.2792C136.915 40.9755 137.417 42.9881 138.902 44.1195C158.384 58.9689 171.773 68.5922 178.262 102.531C178.628 104.447 180.289 105.858 182.239 105.858H210.362C212.571 105.858 214.371 104.063 214.282 101.856C212.481 56.7562 180.567 20.2956 153.457 12.4532C151.662 11.934 149.809 12.8842 149.03 14.5825Z" fill="#D0B4A8" fill-opacity="0.14"/>
<defs>
<linearGradient id="paint0_linear_36_20185" x1="0" y1="0" x2="161.744" y2="64.775" gradientUnits="userSpaceOnUse">
<stop stop-color="#AE68FA"/>
<stop offset="1" stop-color="#F1966E"/>
</linearGradient>
</defs>
</svg>