<svg xmlns="http://www.w3.org/2000/svg" fill="none" viewBox="4 0 20 11">
<g filter="url(#filter0_d_36_20529)">
<path d="M18.5831 0.261336C18.2787 0.60859 18.2799 1.17026 18.5857 1.51587L21.3264 4.6129L4.78125 4.6129C4.34977 4.6129 4 5.01006 4 5.5C4 5.98994 4.34977 6.3871 4.78125 6.3871L21.3265 6.3871L18.5857 9.48413C18.2799 9.82974 18.2787 10.3914 18.5831 10.7387C18.8875 11.086 19.3821 11.0872 19.688 10.7417L23.7701 6.12877C23.7704 6.12851 23.7706 6.1282 23.7708 6.12793C24.0759 5.78232 24.0769 5.21883 23.7709 4.87207C23.7706 4.8718 23.7704 4.87149 23.7702 4.87123L19.688 0.25832C19.3822 -0.0872039 18.8875 -0.0860066 18.5831 0.261336Z" fill="white"/>
</g>
<defs>
<filter id="filter0_d_36_20529" x="0" y="0" width="28" height="19" filterUnits="userSpaceOnUse" color-interpolation-filters="sRGB">
<feFlood flood-opacity="0" result="BackgroundImageFix"/>
<feColorMatrix in="SourceAlpha" type="matrix" values="0 0 0 0 0 0 0 0 0 0 0 0 0 0 0 0 0 0 127 0" result="hardAlpha"/>
<feOffset dy="4"/>
<feGaussianBlur stdDeviation="2"/>
<feComposite in2="hardAlpha" operator="out"/>
<feColorMatrix type="matrix" values="0 0 0 0 0 0 0 0 0 0 0 0 0 0 0 0 0 0 0.25 0"/>
<feBlend mode="normal" in2="BackgroundImageFix" result="effect1_dropShadow_36_20529"/>
<feBlend mode="normal" in="SourceGraphic" in2="effect1_dropShadow_36_20529" result="shape"/>
</filter>
</defs>
</svg>